<mxfile host="Electron" modified="2024-04-04T14:26:56.812Z" agent="Mozilla/5.0 (Macintosh; Intel Mac OS X 10_15_7) AppleWebKit/537.36 (KHTML, like Gecko) draw.io/24.1.0 Chrome/120.0.6099.109 Electron/28.1.0 Safari/537.36" etag="FJ9_PKfOliE1GrSTpQVI" version="24.1.0" type="device">
  <diagram name="Page-1" id="dO1Mpuame1zcrcQhVnN9">
    <mxGraphModel dx="1242" dy="878" grid="1" gridSize="10" guides="1" tooltips="1" connect="1" arrows="1" fold="1" page="1" pageScale="1" pageWidth="850" pageHeight="1100" math="0" shadow="0">
      <root>
        <mxCell id="0" />
        <mxCell id="1" parent="0" />
        <mxCell id="0YP7Ph_LbspiDsLWj67T-2" value="" style="rounded=1;whiteSpace=wrap;html=1;strokeWidth=2;fillWeight=4;hachureGap=8;hachureAngle=45;fillColor=none;sketch=1;fontColor=#ffffff;strokeColor=#3700CC;" parent="1" vertex="1">
          <mxGeometry x="430" y="231" width="140" height="240" as="geometry" />
        </mxCell>
        <mxCell id="0YP7Ph_LbspiDsLWj67T-8" value="" style="rounded=1;whiteSpace=wrap;html=1;strokeWidth=2;fillWeight=4;hachureGap=8;hachureAngle=45;fillColor=none;sketch=1;fontColor=#ffffff;strokeColor=#005700;" parent="1" vertex="1">
          <mxGeometry x="280" y="230" width="140" height="240" as="geometry" />
        </mxCell>
        <mxCell id="EMe6ZgiDg7fWnLc_oaXX-9" value="&lt;b&gt;Hugging Face&lt;/b&gt;" style="rounded=1;whiteSpace=wrap;html=1;strokeWidth=2;fillWeight=4;hachureGap=8;hachureAngle=45;fillColor=#1ba1e2;sketch=1;fontColor=#ffffff;strokeColor=#006EAF;fillStyle=solid;" parent="1" vertex="1">
          <mxGeometry x="440" y="252" width="120" height="60" as="geometry" />
        </mxCell>
        <mxCell id="EMe6ZgiDg7fWnLc_oaXX-11" value="&lt;b&gt;llama.cpp&lt;/b&gt;" style="rounded=1;whiteSpace=wrap;html=1;strokeWidth=2;fillWeight=4;hachureGap=8;hachureAngle=45;fillColor=#1ba1e2;sketch=1;fontColor=#ffffff;strokeColor=#006EAF;fillStyle=solid;" parent="1" vertex="1">
          <mxGeometry x="440" y="322" width="120" height="60" as="geometry" />
        </mxCell>
        <mxCell id="EMe6ZgiDg7fWnLc_oaXX-12" value="&lt;b&gt;Other?&lt;/b&gt;" style="rounded=1;whiteSpace=wrap;html=1;strokeWidth=2;fillWeight=4;hachureGap=8;hachureAngle=45;fillColor=#1ba1e2;sketch=1;fontColor=#ffffff;strokeColor=#006EAF;fillStyle=solid;" parent="1" vertex="1">
          <mxGeometry x="440" y="392" width="120" height="60" as="geometry" />
        </mxCell>
        <mxCell id="0YP7Ph_LbspiDsLWj67T-6" value="&lt;b&gt;Lllama2&lt;/b&gt;" style="rounded=1;whiteSpace=wrap;html=1;strokeWidth=2;fillWeight=4;hachureGap=8;hachureAngle=45;fillColor=#60a917;sketch=1;fontColor=#ffffff;strokeColor=#2D7600;fillStyle=solid;" parent="1" vertex="1">
          <mxGeometry x="290" y="252" width="120" height="60" as="geometry" />
        </mxCell>
        <mxCell id="0YP7Ph_LbspiDsLWj67T-7" value="&lt;b&gt;Mixtral&lt;/b&gt;" style="rounded=1;whiteSpace=wrap;html=1;strokeWidth=2;fillWeight=4;hachureGap=8;hachureAngle=45;fillColor=#60a917;sketch=1;fontColor=#ffffff;strokeColor=#2D7600;fillStyle=solid;" parent="1" vertex="1">
          <mxGeometry x="290" y="322" width="120" height="60" as="geometry" />
        </mxCell>
        <mxCell id="0YP7Ph_LbspiDsLWj67T-9" value="&lt;b&gt;Gemma&lt;/b&gt;" style="rounded=1;whiteSpace=wrap;html=1;strokeWidth=2;fillWeight=4;hachureGap=8;hachureAngle=45;fillColor=#60a917;sketch=1;fontColor=#ffffff;strokeColor=#2D7600;fillStyle=solid;" parent="1" vertex="1">
          <mxGeometry x="290" y="392" width="120" height="60" as="geometry" />
        </mxCell>
        <mxCell id="0YP7Ph_LbspiDsLWj67T-11" value="&lt;font color=&quot;#000000&quot;&gt;Code&lt;/font&gt;" style="verticalLabelPosition=bottom;verticalAlign=top;html=1;shadow=0;dashed=0;strokeWidth=1;shape=mxgraph.android.text_insertion_point;" parent="1" vertex="1">
          <mxGeometry x="490" y="457" width="20" height="30" as="geometry" />
        </mxCell>
        <mxCell id="0YP7Ph_LbspiDsLWj67T-12" value="&lt;font color=&quot;#000000&quot;&gt;Model&lt;/font&gt;" style="verticalLabelPosition=bottom;verticalAlign=top;html=1;shadow=0;dashed=0;strokeWidth=1;shape=mxgraph.android.text_insertion_point;fillColor=none;fontColor=#ffffff;strokeColor=#005700;perimeterSpacing=0;fillStyle=solid;" parent="1" vertex="1">
          <mxGeometry x="340" y="457" width="20" height="30" as="geometry" />
        </mxCell>
        <mxCell id="0YP7Ph_LbspiDsLWj67T-19" value="&lt;b&gt;Model Hub&lt;/b&gt;" style="shape=datastore;whiteSpace=wrap;html=1;fillColor=#008a00;fontColor=#ffffff;strokeColor=#005700;" parent="1" vertex="1">
          <mxGeometry x="140" y="278" width="120" height="114" as="geometry" />
        </mxCell>
        <mxCell id="0YP7Ph_LbspiDsLWj67T-20" value="&lt;b&gt;PyPi, Github, DockerHub&lt;/b&gt;" style="shape=datastore;whiteSpace=wrap;html=1;fillColor=#0050ef;fontColor=#ffffff;strokeColor=#001DBC;" parent="1" vertex="1">
          <mxGeometry x="590" y="278" width="120" height="114" as="geometry" />
        </mxCell>
      </root>
    </mxGraphModel>
  </diagram>
</mxfile>
